#N canvas 662 141 696 784 12;
#X obj 117 122 inlet;
#X text 60 97 metro trigger;
#X obj 182 172 inlet;
#X text 141 147 original ms;
#X obj 305 221 inlet;
#X obj 117 533 metro;
#X obj 182 492 expr $f1 * $f2 / $f3;
#X floatatom 309 378 5 0 0 0 - - -;
#X floatatom 243 359 5 0 0 0 - - -;
#X obj 200 422 / 4;
#X obj 182 454 /;
#X obj 117 576 f 0;
#X floatatom 117 601 5 0 0 0 - - -;
#X obj 169 576 + 1;
#X obj 169 600 %;
#X obj 117 662 outlet;
#X obj 43 637 outlet;
#X text 14 666 metro bang;
#X text 91 693 sub-measure;
#X text 566 33 Omkar Bhatt;
#X text 573 52 03/29/2021;
#X text 384 14 Time Signature Metro and sub-measures;
#X text 243 196 time signature;
#X text 230 72 Takes in current metro trigger \, with original metro
ms and the needed time signature \, as test and send out submeasures
and bangs to sync with original metro.;
#X obj 305 249 unpack f f;
#X obj 257 675 outlet;
#X text 208 706 time per beat;
#X obj 421 286 loadbang;
#X msg 421 310 1;
#X connect 0 0 5 0;
#X connect 0 0 11 1;
#X connect 2 0 10 0;
#X connect 4 0 24 0;
#X connect 5 0 11 0;
#X connect 5 0 16 0;
#X connect 6 0 5 1;
#X connect 6 0 25 0;
#X connect 7 0 9 0;
#X connect 7 0 6 1;
#X connect 8 0 6 2;
#X connect 8 0 14 1;
#X connect 9 0 10 1;
#X connect 10 0 6 0;
#X connect 11 0 12 0;
#X connect 11 0 13 0;
#X connect 12 0 15 0;
#X connect 13 0 14 0;
#X connect 14 0 11 1;
#X connect 24 0 8 0;
#X connect 24 1 7 0;
#X connect 27 0 28 0;
#X connect 28 0 8 0;
