#N canvas 1219 108 660 579 12;
#X floatatom 47 29 5 10 500 2 BPM - -;
#X obj 18 31 tgl 15 0 empty empty empty 17 7 0 10 -262144 -1 -1 1 1
;
#X obj 47 107 bng 15 250 50 0 empty empty empty 17 7 0 10 -262144 -1
-1;
#X msg 47 56 tempo \$1 permin;
#X obj 47 82 metro;
#X floatatom 316 379 5 0 0 0 - - -;
#X obj 270 409 noteout;
#X floatatom 321 286 5 0 0 0 - - -;
#X floatatom 372 286 5 0 0 0 - - -;
#X floatatom 293 354 5 0 0 0 - - -;
#X obj 270 315 makenote 90 850;
#X msg 369 249 36;
#X text 252 229 hi-hat;
#X text 310 227 snare;
#X text 367 226 kick;
#X floatatom 270 286 5 0 0 0 - - -;
#X msg 319 249 37;
#X obj 80 139 f 0;
#X floatatom 80 163 5 0 0 0 - - -;
#X obj 130 137 + 1;
#X obj 130 161 % 4;
#X obj 80 195 s sub_measure;
#X obj 319 136 r sub_measure;
#X obj 319 178 sel 1 3;
#X obj 47 224 s metro_bang;
#X obj 270 103 r metro_bang;
#X msg 270 250 42;
#X connect 0 0 3 0;
#X connect 1 0 4 0;
#X connect 1 0 17 1;
#X connect 2 0 17 0;
#X connect 2 0 24 0;
#X connect 3 0 4 0;
#X connect 4 0 2 0;
#X connect 5 0 6 2;
#X connect 7 0 10 1;
#X connect 8 0 10 2;
#X connect 9 0 6 1;
#X connect 10 0 6 0;
#X connect 10 1 9 0;
#X connect 11 0 15 0;
#X connect 15 0 10 0;
#X connect 16 0 15 0;
#X connect 17 0 18 0;
#X connect 17 0 19 0;
#X connect 18 0 21 0;
#X connect 19 0 20 0;
#X connect 20 0 17 1;
#X connect 22 0 23 0;
#X connect 23 0 16 0;
#X connect 23 1 11 0;
#X connect 25 0 26 0;
#X connect 26 0 15 0;
