#N canvas -1618 101 1173 824 12;
#X floatatom 991 130 5 20 500 2 BPM - -;
#X obj 889 225 s metro_bang;
#X obj 927 17 MIDI_DrumMachine;
#X obj 889 159 metro_bpm, f 15;
#X obj 963 199 s metro_ms;
#X obj 991 72 loadbang;
#X msg 991 96 120;
#X obj 19 12 tgl 15 0 empty empty empty 17 7 0 10 -262144 -1 -1 0 1
;
#X obj 19 54 s main_t;
#X obj 889 115 r main_t;
#X obj 85 303 time_signature;
#X obj 85 248 r main_t;
#X obj 132 273 r metro_ms;
#X obj 85 334 bng 15 250 50 0 empty empty empty 17 7 0 10 -262144 -1
-1;
#X obj 618 304 time_signature;
#X obj 618 249 r main_t;
#X obj 665 274 r metro_ms;
#X obj 618 335 bng 15 250 50 0 empty empty empty 17 7 0 10 -262144
-1 -1;
#X msg 713 217 23 16;
#X obj 83 394 hradio 15 1 0 17 empty empty empty 0 -8 0 10 -262144
-1 -1 9;
#X obj 653 408 hradio 15 1 0 23 empty empty empty 0 -8 0 10 -262144
-1 -1 22;
#X obj 423 296 hradio 15 1 0 4 empty empty empty 0 -8 0 10 -262144
-1 -1 3;
#X text 496 294 4 4;
#X text 295 364 11 8;
#X text 959 383 23 16;
#X obj 182 175 loadbang;
#X obj 710 182 loadbang;
#X text 39 134 Andromeda Blackhole Drum Machine;
#X text 666 133 Lead Line;
#X obj 378 245 time_signature;
#X obj 378 196 r main_t;
#X obj 425 221 r metro_ms;
#X obj 378 276 bng 15 250 50 0 empty empty empty 17 7 0 10 -262144
-1 -1;
#X msg 473 197 4 4;
#X obj 473 174 loadbang;
#X text 387 132 Calculated Bass;
#N canvas 765 165 692 772 bass_line 0;
#X obj 86 52 inlet;
#X floatatom 86 99 5 0 0 0 - - -;
#X msg 15 52 41;
#X obj 15 11 loadbang;
#X obj 161 52 inlet;
#X obj 86 229 +;
#X floatatom 132 366 5 0 0 0 - - -;
#X obj 86 396 noteout;
#X floatatom 109 341 5 0 0 0 - - -;
#X obj 86 311 makenote 90 250;
#X obj 249 51 inlet;
#X msg 31 140 2;
#X floatatom 104 200 5 0 0 0 - - -;
#X obj 198 94 % 2;
#X obj 153 95 / 2;
#X obj 153 127 int;
#X obj 153 170 expr $f1*3 + $f2;
#X connect 0 0 1 0;
#X connect 1 0 5 0;
#X connect 2 0 1 0;
#X connect 3 0 2 0;
#X connect 3 0 11 0;
#X connect 4 0 14 0;
#X connect 4 0 13 0;
#X connect 5 0 9 0;
#X connect 6 0 7 2;
#X connect 8 0 7 1;
#X connect 9 0 7 0;
#X connect 9 1 8 0;
#X connect 10 0 9 2;
#X connect 11 0 6 0;
#X connect 12 0 5 1;
#X connect 13 0 16 1;
#X connect 14 0 15 0;
#X connect 15 0 16 0;
#X connect 16 0 12 0;
#X restore 378 377 pd bass_line;
#N canvas -1015 247 679 717 drum-beats 1;
#X obj 161 52 inlet;
#X obj 55 334 s hi-hat-open;
#X obj 285 370 s snare;
#X obj 109 379 s hi-hat-close;
#X obj 357 370 s kick;
#X obj 105 184 % 2;
#X obj 102 250 sel 0 1;
#X obj 206 184 % 3;
#X obj 208 246 sel 0 1 2;
#X obj 308 180 % 4;
#X obj 310 241 sel 0 1 2 3;
#X connect 0 0 5 0;
#X connect 0 0 7 0;
#X connect 5 0 6 0;
#X connect 6 0 1 0;
#X connect 6 2 3 0;
#X connect 7 0 8 0;
#X connect 8 0 2 0;
#X connect 8 1 2 0;
#X connect 9 0 10 0;
#X connect 10 0 4 0;
#X connect 10 1 4 0;
#X connect 10 2 4 0;
#X restore 83 434 pd drum-beats;
#X text 528 746 current bpm (120) + phased 1 midi slower and higher
pitched + change BPM for new MIDI;
#X text 411 438 changes 23 16 to 17 16;
#X msg 182 219 17 16;
#N canvas 1253 100 450 544 length_tester 1;
#X obj 77 41 inlet;
#X obj 77 148 +;
#X obj 77 192 makenote 40 90 100;
#X floatatom 123 261 5 0 0 0 - - -;
#X obj 77 291 noteout;
#X floatatom 100 236 5 0 0 0 - - -;
#X floatatom 77 85 5 0 0 0 - - -;
#X floatatom 125 116 5 0 0 0 - - -;
#X connect 0 0 6 0;
#X connect 1 0 2 0;
#X connect 2 0 4 0;
#X connect 2 1 5 0;
#X connect 3 0 4 2;
#X connect 5 0 4 1;
#X connect 6 0 1 0;
#X connect 7 0 1 1;
#X restore 940 311 pd length_tester;
#N canvas -1091 135 833 729 F 1;
#X obj 78 69 inlet;
#X obj 130 112 hradio 15 1 0 23 empty empty empty 0 -8 0 10 -262144
-1 -1 22;
#X text 443 84 23 16;
#X floatatom 86 393 5 0 0 0 - - -;
#X floatatom 132 393 5 0 0 0 - - -;
#X floatatom 178 393 5 0 0 0 - - -;
#X text 691 389 F# min;
#X msg 610 356 54;
#X msg 657 359 57;
#X msg 705 358 61;
#X obj 622 318 bng 15 250 50 0 empty empty empty 17 7 0 10 -262144
-1 -1;
#X msg 550 445 54;
#X obj 572 417 bng 15 250 50 0 empty empty empty 17 7 0 10 -262144
-1 -1;
#X msg 597 448 56;
#X msg 645 447 57;
#X msg 692 450 59;
#X msg 738 448 60;
#X floatatom 297 487 5 0 0 0 - - -;
#X floatatom 343 487 5 0 0 0 - - -;
#X floatatom 389 487 5 0 0 0 - - -;
#X floatatom 434 485 5 0 0 0 - - -;
#X floatatom 481 485 5 0 0 0 - - -;
#X floatatom 297 534 5 0 0 0 - - -;
#X floatatom 377 668 5 0 0 0 - - -;
#X obj 331 698 noteout;
#X floatatom 354 643 5 0 0 0 - - -;
#X obj 452 546 inlet;
#X obj 331 613 makenote 54 90 100;
#X text 153 431 bass notes;
#X text 441 513 lead notes;
#X text 681 481 F# dim half;
#X obj 85 242 sel 0 1;
#X obj 85 199 % 4;
#X obj 161 198 % 3;
#X obj 161 241 sel 0 1 2;
#X obj 85 517 - 12;
#X obj 411 308 % 7;
#X obj 411 351 sel 0 1 2 3 4 5 6;
#X obj 271 310 % 6;
#X obj 271 353 sel 0 1 2 3 4 5;
#X floatatom 525 485 5 0 0 0 - - -;
#X msg 776 448 61;
#X obj 311 572 + 12;
#X obj 277 391 % 13;
#X obj 277 434 sel 0 1 2 3 4 5 6 7 8 9 10 11 12;
#X connect 0 0 1 0;
#X connect 0 0 32 0;
#X connect 0 0 33 0;
#X connect 0 0 36 0;
#X connect 0 0 38 0;
#X connect 0 0 43 0;
#X connect 3 0 35 0;
#X connect 4 0 35 0;
#X connect 5 0 35 0;
#X connect 7 0 3 0;
#X connect 8 0 4 0;
#X connect 9 0 5 0;
#X connect 10 0 7 0;
#X connect 10 0 8 0;
#X connect 10 0 9 0;
#X connect 11 0 17 0;
#X connect 12 0 11 0;
#X connect 12 0 13 0;
#X connect 12 0 14 0;
#X connect 12 0 15 0;
#X connect 12 0 16 0;
#X connect 12 0 41 0;
#X connect 13 0 18 0;
#X connect 14 0 19 0;
#X connect 15 0 20 0;
#X connect 16 0 21 0;
#X connect 17 0 22 0;
#X connect 18 0 22 0;
#X connect 19 0 22 0;
#X connect 20 0 22 0;
#X connect 21 0 22 0;
#X connect 22 0 42 0;
#X connect 23 0 24 2;
#X connect 25 0 24 1;
#X connect 26 0 27 2;
#X connect 27 0 24 0;
#X connect 27 1 25 0;
#X connect 31 0 3 0;
#X connect 31 1 5 0;
#X connect 32 0 31 0;
#X connect 33 0 34 0;
#X connect 34 1 4 0;
#X connect 34 2 3 0;
#X connect 35 0 27 0;
#X connect 36 0 37 0;
#X connect 38 0 39 0;
#X connect 40 0 22 0;
#X connect 41 0 40 0;
#X connect 42 0 27 0;
#X connect 43 0 44 0;
#X connect 44 0 17 0;
#X connect 44 1 18 0;
#X connect 44 2 20 0;
#X connect 44 3 19 0;
#X connect 44 4 17 0;
#X connect 44 5 18 0;
#X connect 44 6 20 0;
#X connect 44 7 19 0;
#X connect 44 8 17 0;
#X connect 44 9 19 0;
#X connect 44 10 18 0;
#X connect 44 11 20 0;
#X connect 44 12 19 0;
#X connect 44 13 17 0;
#X restore 653 456 pd F sharp Improv;
#X obj 142 613 time_signature;
#X obj 142 558 r main_t;
#X obj 189 583 r metro_ms;
#X obj 142 644 bng 15 250 50 0 empty empty empty 17 7 0 10 -262144
-1 -1;
#X obj 140 704 hradio 15 1 0 19 empty empty empty 0 -8 0 10 -262144
-1 -1 18;
#X obj 239 485 loadbang;
#N canvas -797 196 679 717 drum-beats2 0;
#X obj 161 52 inlet;
#X obj 55 334 s hi-hat-open;
#X obj 285 370 s snare;
#X obj 109 379 s hi-hat-close;
#X obj 357 370 s kick;
#X obj 105 184 % 3;
#X obj 102 250 sel 0 1 3;
#X obj 206 184 % 10;
#X obj 208 246 sel 0 1 2 3 4 5 6 7 8 9;
#X connect 0 0 5 0;
#X connect 0 0 7 0;
#X connect 5 0 6 0;
#X connect 6 0 1 0;
#X connect 6 1 1 0;
#X connect 7 0 8 0;
#X connect 8 0 4 0;
#X connect 8 0 2 0;
#X connect 8 1 4 0;
#X connect 8 2 2 0;
#X connect 8 3 4 0;
#X connect 8 4 2 0;
#X connect 8 5 4 0;
#X connect 8 6 4 0;
#X connect 8 7 2 0;
#X connect 8 8 4 0;
#X restore 140 744 pd drum-beats2;
#X msg 239 529 19 16;
#X connect 0 0 3 1;
#X connect 3 0 1 0;
#X connect 3 1 4 0;
#X connect 5 0 6 0;
#X connect 6 0 0 0;
#X connect 7 0 8 0;
#X connect 9 0 3 0;
#X connect 10 0 13 0;
#X connect 11 0 10 0;
#X connect 12 0 10 1;
#X connect 14 0 17 0;
#X connect 14 1 20 0;
#X connect 14 2 42 1;
#X connect 15 0 14 0;
#X connect 16 0 14 1;
#X connect 18 0 14 2;
#X connect 19 0 37 0;
#X connect 20 0 42 0;
#X connect 21 0 36 1;
#X connect 25 0 40 0;
#X connect 26 0 18 0;
#X connect 29 0 32 0;
#X connect 29 1 21 0;
#X connect 29 2 36 2;
#X connect 30 0 29 0;
#X connect 31 0 29 1;
#X connect 32 0 36 0;
#X connect 33 0 29 2;
#X connect 34 0 33 0;
#X connect 40 0 10 2;
#X connect 43 0 46 0;
#X connect 43 1 47 0;
#X connect 44 0 43 0;
#X connect 45 0 43 1;
#X connect 47 0 49 0;
#X connect 48 0 50 0;
#X connect 50 0 43 2;
