#N canvas 828 128 757 778 12;
#X floatatom 78 63 5 20 500 2 BPM - -;
#X obj 18 65 tgl 15 0 empty empty empty 17 7 0 10 -262144 -1 -1 1 1
;
#X obj 18 160 s metro_bang;
#X obj 594 27 MIDI_DrumMachine;
#X obj 18 94 metro_bpm;
#X obj 78 134 s metro_ms;
#X obj 260 268 r metro_ms;
#X text 115 312 make it eighth note;
#X obj 83 556 bng 15 250 50 0 empty empty empty 17 7 0 10 -262144 -1
-1;
#X obj 196 563 bng 15 250 50 0 empty empty empty 17 7 0 10 -262144
-1 -1;
#X obj 196 473 metro;
#X floatatom 170 181 5 0 0 0 - - -;
#X obj 338 447 metro 500;
#X obj 350 520 bng 15 250 50 0 empty empty empty 17 7 0 10 -262144
-1 -1;
#X floatatom 259 444 5 0 0 0 - - -;
#X msg 260 310 / 2;
#X obj 78 5 loadbang;
#X msg 78 29 120;
#X connect 0 0 4 1;
#X connect 1 0 4 0;
#X connect 1 0 10 0;
#X connect 1 0 12 0;
#X connect 4 0 2 0;
#X connect 4 0 8 0;
#X connect 4 1 5 0;
#X connect 4 1 11 0;
#X connect 6 0 15 0;
#X connect 10 0 9 0;
#X connect 12 0 13 0;
#X connect 15 0 10 1;
#X connect 15 0 14 0;
#X connect 16 0 17 0;
#X connect 17 0 0 0;
