#N canvas 669 50 451 637 12;
#X obj 107 320 bng 15 250 50 0 empty empty empty 17 7 0 10 -262144
-1 -1;
#X obj 177 321 bng 15 250 50 0 empty empty empty 17 7 0 10 -262144
-1 -1;
#X obj 107 413 readsf~;
#X msg 107 353 open hihat.wav \, 1;
#X obj 129 534 dac~;
#X obj 177 413 readsf~;
#X msg 177 379 open snare.wav \, 1;
#X obj 177 285 metro;
#X obj 367 371 vsl 15 128 0 127 0 0 empty empty empty 0 -9 0 10 -262144
-1 -1 0 1;
#X floatatom 367 508 5 0 0 0 - - -;
#X obj 367 535 / 127;
#X obj 178 491 *~;
#X obj 107 491 *~;
#N canvas 621 304 450 300 BPM 0;
#X obj 42 24 inlet;
#X obj 149 25 inlet;
#X msg 74 82 tempo \$1 permin;
#X obj 42 126 metro;
#X obj 42 182 outlet;
#X obj 149 208 outlet;
#X obj 149 181 * 16.667;
#X connect 0 0 3 0;
#X connect 1 0 2 0;
#X connect 1 0 6 0;
#X connect 2 0 3 0;
#X connect 3 0 4 0;
#X connect 6 0 5 0;
#X restore 59 72 pd BPM;
#X floatatom 98 31 5 0 300 0 BPM - -;
#X obj 28 33 tgl 15 0 empty empty empty 17 7 0 10 -262144 -1 -1 1 1
;
#X obj 59 135 s met;
#X obj 106 110 s met_ms;
#X obj 367 562 s gain;
#X obj 125 459 r gain;
#X obj 196 459 r gain;
#X obj 12 110 s tog;
#X obj 177 185 r tog;
#X obj 107 284 r met;
#X obj 223 185 r met_ms;
#X obj 293 84 vradio 15 1 0 8 empty empty empty 0 -8 0 10 -262144 -1
-1 2;
#X obj 318 84 vradio 15 1 0 8 empty empty empty 0 -8 0 10 -262144 -1
-1 0;
#X obj 333 215 + 1;
#X obj 277 215 + 1;
#X obj 59 110 bng 15 250 50 0 empty empty empty 17 7 0 10 -262144 -1
-1;
#X floatatom 256 287 5 0 0 0 - - -;
#X obj 223 251 expr $f2*$f3/$f1;
#X connect 0 0 3 0;
#X connect 1 0 6 0;
#X connect 2 0 12 0;
#X connect 3 0 2 0;
#X connect 5 0 11 0;
#X connect 6 0 5 0;
#X connect 7 0 1 0;
#X connect 8 0 9 0;
#X connect 9 0 10 0;
#X connect 10 0 18 0;
#X connect 11 0 4 1;
#X connect 12 0 4 0;
#X connect 13 0 29 0;
#X connect 13 1 17 0;
#X connect 14 0 13 1;
#X connect 15 0 13 0;
#X connect 15 0 21 0;
#X connect 19 0 12 1;
#X connect 20 0 11 1;
#X connect 22 0 7 0;
#X connect 22 0 31 0;
#X connect 23 0 0 0;
#X connect 24 0 31 1;
#X connect 25 0 28 0;
#X connect 26 0 27 0;
#X connect 27 0 31 2;
#X connect 28 0 31 0;
#X connect 29 0 16 0;
#X connect 31 0 7 1;
#X connect 31 0 30 0;
