#N canvas -1515 142 1358 788 12;
#X floatatom 69 110 5 10 500 2 BPM - -;
#X obj 40 141 tgl 15 0 empty empty empty 17 7 0 10 -262144 -1 -1 1
1;
#X obj 69 188 bng 15 250 50 0 empty empty empty 17 7 0 10 -262144 -1
-1;
#X msg 69 137 tempo \$1 permin;
#X obj 69 163 metro;
#X floatatom 1128 474 5 0 0 0 - - -;
#X obj 1082 504 noteout;
#X floatatom 1133 290 5 0 0 0 - - -;
#X floatatom 1184 290 5 0 0 0 - - -;
#X floatatom 1105 449 5 0 0 0 - - -;
#X msg 1224 236 36;
#X floatatom 1082 290 5 0 0 0 - - -;
#X obj 102 220 f 0;
#X floatatom 102 244 5 0 0 0 - - -;
#X obj 152 218 + 1;
#X obj 102 276 s sub_measure;
#X obj 511 115 r sub_measure;
#X obj 69 305 s metro_bang;
#X obj 152 242 % 11;
#X obj 1174 173 r snare;
#X obj 1224 196 r kick;
#X msg 1174 236 44;
#X obj 1100 349 random 4;
#X obj 1082 378 +;
#X obj 1082 318 t f b;
#N canvas -757 393 376 303 beat1 0;
#X obj 54 120 sel 0 1 2 3 4 5 6 7 8 9 10, f 40;
#X obj 170 245 s snare;
#X obj 243 245 s kick;
#X obj 54 51 inlet;
#X obj 55 245 s hi-hat-open;
#X connect 0 0 4 0;
#X connect 0 1 4 0;
#X connect 0 2 1 0;
#X connect 0 3 2 0;
#X connect 0 3 4 0;
#X connect 0 4 4 0;
#X connect 0 5 4 0;
#X connect 0 6 1 0;
#X connect 0 6 4 0;
#X connect 0 7 1 0;
#X connect 0 8 2 0;
#X connect 0 8 4 0;
#X connect 0 9 1 0;
#X connect 0 10 4 0;
#X connect 3 0 0 0;
#X restore 511 286 pd beat1;
#X obj 1082 410 makenote 90 850;
#N canvas 385 131 995 761 beat1 0;
#X obj 54 120 sel 0 1 2 3 4 5 6 7 8 9 10, f 40;
#X obj 159 245 s snare;
#X obj 243 245 s kick;
#X obj 54 51 inlet;
#X obj 54 245 s hi-hat-open;
#X connect 0 0 4 0;
#X connect 0 1 1 0;
#X connect 0 1 4 0;
#X connect 0 2 2 0;
#X connect 0 2 4 0;
#X connect 0 3 1 0;
#X connect 0 4 2 0;
#X connect 0 4 4 0;
#X connect 0 5 1 0;
#X connect 0 5 4 0;
#X connect 0 6 2 0;
#X connect 0 6 4 0;
#X connect 0 7 1 0;
#X connect 0 8 4 0;
#X connect 0 9 1 0;
#X connect 0 9 2 0;
#X connect 0 9 4 0;
#X connect 0 10 1 0;
#X connect 3 0 0 0;
#X restore 605 284 pd beat1;
#X text 1076 49 MIDI Caller Receives triggers for specific drum and
sends a MIDI notes;
#X text 29 21 Metro Setting Creates metros for beats and measures;
#X msg 1129 237 40;
#X obj 1082 113 r hi-hat-open;
#X obj 1129 140 r hi-hat-closed;
#X msg 1082 238 48;
#X connect 0 0 3 0;
#X connect 1 0 4 0;
#X connect 1 0 12 1;
#X connect 2 0 12 0;
#X connect 2 0 17 0;
#X connect 3 0 4 0;
#X connect 4 0 2 0;
#X connect 5 0 6 2;
#X connect 7 0 26 1;
#X connect 8 0 26 2;
#X connect 9 0 6 1;
#X connect 10 0 11 0;
#X connect 11 0 24 0;
#X connect 12 0 13 0;
#X connect 12 0 14 0;
#X connect 13 0 15 0;
#X connect 14 0 18 0;
#X connect 16 0 27 0;
#X connect 18 0 12 1;
#X connect 19 0 21 0;
#X connect 20 0 10 0;
#X connect 21 0 11 0;
#X connect 22 0 23 1;
#X connect 23 0 26 0;
#X connect 24 0 23 0;
#X connect 24 1 22 0;
#X connect 26 0 6 0;
#X connect 26 1 9 0;
#X connect 30 0 11 0;
#X connect 31 0 33 0;
#X connect 32 0 30 0;
#X connect 33 0 11 0;
