#N canvas -1618 101 1173 824 12;
#X floatatom 991 130 5 20 500 2 BPM - -;
#X obj 889 225 s metro_bang;
#X obj 923 32 MIDI_DrumMachine;
#X obj 889 159 metro_bpm, f 15;
#X obj 963 199 s metro_ms;
#X obj 991 72 loadbang;
#X msg 991 96 120;
#X obj 19 12 tgl 15 0 empty empty empty 17 7 0 10 -262144 -1 -1 0 1
;
#X obj 19 54 s main_t;
#X obj 889 115 r main_t;
#X obj 85 303 time_signature;
#X obj 85 248 r main_t;
#X obj 132 273 r metro_ms;
#X obj 85 334 bng 15 250 50 0 empty empty empty 17 7 0 10 -262144 -1
-1;
#X obj 618 304 time_signature;
#X obj 618 249 r main_t;
#X obj 665 274 r metro_ms;
#X obj 618 335 bng 15 250 50 0 empty empty empty 17 7 0 10 -262144
-1 -1;
#X msg 713 217 23 16;
#X obj 110 423 hradio 15 1 0 17 empty empty empty 0 -8 0 10 -262144
-1 -1 8;
#X obj 592 581 hradio 15 1 0 23 empty empty empty 0 -8 0 10 -262144
-1 -1 11;
#X obj 423 296 hradio 15 1 0 4 empty empty empty 0 -8 0 10 -262144
-1 -1 1;
#X text 496 294 4 4;
#X text 295 364 11 8;
#X text 1020 315 23 16;
#X obj 182 175 loadbang;
#X obj 710 182 loadbang;
#X text 39 134 Andromeda Blackhole Drum Machine;
#X text 666 133 Lead Line;
#X obj 378 245 time_signature;
#X obj 378 196 r main_t;
#X obj 425 221 r metro_ms;
#X obj 378 276 bng 15 250 50 0 empty empty empty 17 7 0 10 -262144
-1 -1;
#X msg 473 197 4 4;
#X obj 473 174 loadbang;
#X text 387 132 Calculated Bass;
#N canvas 765 165 692 772 bass_line 0;
#X obj 86 52 inlet;
#X floatatom 86 99 5 0 0 0 - - -;
#X msg 15 52 41;
#X obj 15 11 loadbang;
#X obj 161 52 inlet;
#X obj 86 229 +;
#X floatatom 132 366 5 0 0 0 - - -;
#X obj 86 396 noteout;
#X floatatom 109 341 5 0 0 0 - - -;
#X obj 86 311 makenote 90 250;
#X obj 249 51 inlet;
#X msg 31 140 2;
#X floatatom 104 200 5 0 0 0 - - -;
#X obj 198 94 % 2;
#X obj 153 95 / 2;
#X obj 153 127 int;
#X obj 153 170 expr $f1*3 + $f2;
#X connect 0 0 1 0;
#X connect 1 0 5 0;
#X connect 2 0 1 0;
#X connect 3 0 2 0;
#X connect 3 0 11 0;
#X connect 4 0 14 0;
#X connect 4 0 13 0;
#X connect 5 0 9 0;
#X connect 6 0 7 2;
#X connect 8 0 7 1;
#X connect 9 0 7 0;
#X connect 9 1 8 0;
#X connect 10 0 9 2;
#X connect 11 0 6 0;
#X connect 12 0 5 1;
#X connect 13 0 16 1;
#X connect 14 0 15 0;
#X connect 15 0 16 0;
#X connect 16 0 12 0;
#X restore 378 377 pd bass_line;
#N canvas 732 145 474 450 drum-beats 0;
#X obj 161 52 inlet;
#X obj 55 334 s hi-hat-open;
#X obj 285 370 s snare;
#X obj 109 379 s hi-hat-close;
#X obj 357 370 s kick;
#X obj 105 184 % 2;
#X obj 102 250 sel 0 1;
#X obj 206 184 % 3;
#X obj 208 246 sel 0 1 2;
#X obj 310 241 sel 0 1 2;
#X obj 308 180 % 4;
#X connect 0 0 5 0;
#X connect 0 0 7 0;
#X connect 5 0 6 0;
#X connect 6 0 1 0;
#X connect 6 1 3 0;
#X connect 7 0 8 0;
#X connect 8 0 2 0;
#X connect 8 2 2 0;
#X connect 9 1 4 0;
#X connect 9 3 4 0;
#X connect 10 0 9 0;
#X restore 59 495 pd drum-beats;
#X text 528 746 current bpm (120) + phased 1 midi slower and higher
pitched + change BPM for new MIDI;
#X text 411 438 changes 23 16 to 17 16;
#X msg 182 219 17 16;
#N canvas 335 223 450 544 length_tester 1;
#X obj 77 41 inlet;
#X msg 75 117;
#X obj 75 148 +;
#X obj 75 192 makenote 40 90 100;
#X floatatom 121 261 5 0 0 0 - - -;
#X obj 75 291 noteout;
#X floatatom 98 236 5 0 0 0 - - -;
#X obj 321 152 loadbang;
#X msg 321 176 1;
#X floatatom 124 114 5 0 0 0 - - -;
#X obj 85 77 t b f;
#X connect 0 0 10 0;
#X connect 1 0 2 0;
#X connect 2 0 3 0;
#X connect 3 0 5 0;
#X connect 4 0 5 2;
#X connect 6 0 5 1;
#X connect 7 0 8 0;
#X connect 8 0 4 0;
#X connect 9 0 2 1;
#X connect 10 0 1 0;
#X connect 10 1 9 0;
#X restore 217 576 pd length_tester;
#X connect 0 0 3 1;
#X connect 3 0 1 0;
#X connect 3 1 4 0;
#X connect 5 0 6 0;
#X connect 6 0 0 0;
#X connect 7 0 8 0;
#X connect 9 0 3 0;
#X connect 10 0 13 0;
#X connect 10 1 19 0;
#X connect 11 0 10 0;
#X connect 12 0 10 1;
#X connect 14 0 17 0;
#X connect 14 1 20 0;
#X connect 15 0 14 0;
#X connect 16 0 14 1;
#X connect 18 0 14 2;
#X connect 19 0 37 0;
#X connect 21 0 36 1;
#X connect 25 0 40 0;
#X connect 26 0 18 0;
#X connect 29 0 32 0;
#X connect 29 1 21 0;
#X connect 29 2 36 2;
#X connect 30 0 29 0;
#X connect 31 0 29 1;
#X connect 32 0 36 0;
#X connect 33 0 29 2;
#X connect 34 0 33 0;
#X connect 40 0 10 2;
