#N canvas 482 129 1350 778 12;
#X floatatom 47 29 5 10 500 2 BPM - -;
#X obj 18 31 tgl 15 0 empty empty empty 17 7 0 10 -262144 -1 -1 0 1
;
#X obj 47 107 bng 15 250 50 0 empty empty empty 17 7 0 10 -262144 -1
-1;
#X msg 47 56 tempo \$1 permin;
#X obj 47 82 metro;
#X obj 80 139 f 0;
#X floatatom 80 163 5 0 0 0 - - -;
#X obj 130 137 + 1;
#X obj 130 161 % 4;
#X obj 80 195 s sub_measure;
#X obj 108 381 r sub_measure;
#X obj 108 423 sel 1 3;
#X obj 47 224 s metro_bang;
#X obj 59 348 r metro_bang;
#X obj 59 526 s hi-hat-open;
#X obj 108 502 s snare;
#X obj 131 478 s kick;
#N canvas 109 30 431 613 MIDI_DrumMachine 0;
#X obj 208 131 r hi-hat-open;
#X obj 257 158 r hi-hat-close;
#X obj 307 186 r snare;
#X obj 350 213 r kick;
#X floatatom 254 517 5 0 0 0 - - -;
#X obj 208 547 noteout;
#X floatatom 259 327 5 0 0 0 - - -;
#X floatatom 310 327 5 0 0 0 - - -;
#X floatatom 231 492 5 0 0 0 - - -;
#X floatatom 208 327 5 0 0 0 - - -;
#X obj 226 395 random 4;
#X obj 208 428 +;
#X obj 208 357 t f b;
#X msg 350 290 36;
#X text 325 17 MIDI Caller;
#X text 17 33 Receives calls for the durm machine. Works well for the
custom Andromeda Blackhole Drum Kit on AbletonLive. The random generator
calls the same instrumnent's similar samples to avoid monotone.;
#X msg 307 290 44;
#X msg 257 290 40;
#X msg 208 291 48;
#X obj 208 462 makenote 90 250;
#X connect 0 0 18 0;
#X connect 1 0 17 0;
#X connect 2 0 16 0;
#X connect 3 0 13 0;
#X connect 4 0 5 2;
#X connect 6 0 19 1;
#X connect 7 0 19 2;
#X connect 8 0 5 1;
#X connect 9 0 12 0;
#X connect 10 0 11 1;
#X connect 11 0 19 0;
#X connect 12 0 11 0;
#X connect 12 1 10 0;
#X connect 13 0 9 0;
#X connect 16 0 9 0;
#X connect 17 0 9 0;
#X connect 18 0 9 0;
#X connect 19 0 5 0;
#X connect 19 1 8 0;
#X restore 701 84 pd MIDI_DrumMachine;
#X connect 0 0 3 0;
#X connect 1 0 4 0;
#X connect 1 0 5 1;
#X connect 2 0 5 0;
#X connect 2 0 12 0;
#X connect 3 0 4 0;
#X connect 4 0 2 0;
#X connect 5 0 6 0;
#X connect 5 0 7 0;
#X connect 6 0 9 0;
#X connect 7 0 8 0;
#X connect 8 0 5 1;
#X connect 10 0 11 0;
#X connect 11 0 15 0;
#X connect 11 1 16 0;
#X connect 13 0 14 0;
